<?xml version="1.0" encoding="UTF-8"?>
<svg version="1.1" xmlns="http://www.w3.org/2000/svg" width="32" height="32">
<path d="M0 0 C0.66 0 1.32 0 2 0 C4.14132334 4.23328993 6.2774277 8.4691561 8.40869141 12.70751953 C9.13479257 14.14965065 9.86232665 15.59106122 10.59130859 17.03173828 C11.63754818 19.10001872 12.67864446 21.170817 13.71875 23.2421875 C14.21091003 24.21102371 14.21091003 24.21102371 14.7130127 25.19943237 C17 29.77225659 17 29.77225659 17 32 C6.44 32 -4.12 32 -15 32 C-13.5207999 27.56239971 -12.04322781 23.8503139 -9.9609375 19.7265625 C-9.38085938 18.57285156 -8.80078125 17.41914063 -8.203125 16.23046875 C-7.59383809 15.02860117 -6.98446198 13.82677881 -6.375 12.625 C-5.75744122 11.39992668 -5.14025018 10.1746679 -4.5234375 8.94921875 C-3.01922833 5.96430368 -1.51130878 2.98132497 0 0 Z M0 20 C-0.66 21.98 -1.32 23.96 -2 26 C-0.02 26 1.96 26 4 26 C3.34 24.02 2.68 22.04 2 20 C1.34 20 0.68 20 0 20 Z " fill="#FEFEFE" transform="translate(15,0)"/>
<path d="M0 0 C6.27 0 12.54 0 19 0 C19.66 1.98 20.32 3.96 21 6 C13.41 6 5.82 6 -2 6 C-1.34 4.02 -0.68 2.04 0 0 Z " fill="#D8D8D8" transform="translate(11,26)"/>
</svg>
